<svg width="160" height="44" viewBox="0 0 160 44" fill="none" xmlns="http://www.w3.org/2000/svg">
<g clip-path="url(#clip0_1_690)">
<path d="M14.4293 10.4455C10.651 10.4455 7.05524 12.1083 5.23461 15.3487C5.9631 6.22473 11.2432 4.56196 22.6227 4.56196V0C8.7395 0 0 2.85662 0 19.5269C0.0454567 29.3757 6.05401 33.8525 13.0638 33.8525C20.0736 33.8525 25.7633 29.0346 25.7633 21.7443C25.7633 14.9229 20.8021 10.4461 14.4299 10.4461L14.4293 10.4455ZM12.8359 29.6738C8.51162 29.6738 5.18915 26.6894 5.18915 21.9992C5.18915 17.3089 8.87587 14.5806 13.1092 14.5806C17.3426 14.5806 20.6196 17.5224 20.6196 21.9992C20.6196 26.476 17.1602 29.6738 12.8359 29.6738Z" fill="#3F26DE"/>
<path d="M40.4653 9.37994C36.5053 9.37994 33.501 11.2136 31.6804 13.8993V9.89144H26.5373V44H31.6804V29.4189C33.501 32.062 36.5053 33.8531 40.4199 33.8531C47.1109 33.8531 51.9812 28.7796 51.9812 21.6165C51.9812 14.4534 47.02 9.37994 40.4653 9.37994ZM39.3271 29.248C34.9574 29.248 31.6349 26.1359 31.6349 21.6165C31.6349 17.0971 34.958 13.9845 39.3271 13.9845C43.6963 13.9845 46.7921 17.1397 46.7921 21.6165C46.7921 26.0933 43.6514 29.248 39.3271 29.248Z" fill="#3F26DE"/>
<path d="M65.7735 9.37994C58.6274 9.37994 52.8006 14.5391 52.8006 21.6165C52.8006 28.6939 58.5359 33.8531 65.7735 33.8531C66.1029 33.8531 99.4593 33.8426 99.7816 33.8216C106.59 33.3786 111.776 28.3334 111.776 21.6171C111.776 14.9007 106.579 9.92185 99.9115 9.42197C99.5461 9.39487 66.1466 9.3805 65.7735 9.3805V9.37994ZM65.7735 13.9845C66.1035 13.9845 99.4593 14.0027 99.7781 14.0381C103.636 14.4683 106.587 17.4422 106.587 21.616C106.587 25.7897 103.689 28.7492 99.8153 29.1905C99.4847 29.2281 66.1171 29.2474 65.7735 29.2474C61.4038 29.2474 57.9898 26.1353 57.9898 21.616C57.9898 17.0966 61.4492 13.9839 65.7735 13.9839V13.9845Z" fill="#3F26DE"/>
<path d="M131.643 9.89145V19.1005H118.352V9.89145H113.207V33.341H118.352V23.6625H131.643V33.341H136.786V9.89145H131.643Z" fill="#3F26DE"/>
<path d="M151.033 17.2249H143.796V9.89145H138.652V33.341H150.851C155.995 33.341 160.001 30.7404 160.001 25.1124C160.001 19.4843 156.177 17.2249 151.033 17.2249ZM150.714 28.7365H143.796V21.4882H150.759C153.9 21.4882 154.81 22.9376 154.81 25.1124C154.81 27.2872 153.854 28.7365 150.714 28.7365H150.714Z" fill="#3F26DE"/>
<path fill-rule="evenodd" clip-rule="evenodd" d="M66.7464 15.9895C70.1031 15.9895 72.8246 18.5387 72.8246 21.6829C72.8246 24.827 70.1031 27.3762 66.7464 27.3762C63.3897 27.3762 60.6682 24.827 60.6682 21.6829C60.6682 18.5387 63.3897 15.9895 66.7464 15.9895Z" fill="#3F26DE"/>
</g>
<defs>
<clipPath id="clip0_1_690">
<rect width="160" height="44" fill="white"/>
</clipPath>
</defs>
</svg>
